<?xml version="1.0"?>
<!-- Generated by SVGo -->
<svg width="186.663mm" height="134.768mm"
     viewBox="0.000 0.000 186.663 134.768"
     xmlns="http://www.w3.org/2000/svg" 
     xmlns:xlink="http://www.w3.org/1999/xlink">
<polygon points="181.662,129.768 5.000,129.768 5.000,5.000 181.662,5.000" style="fill:none;stroke-width:0.050000mm;stroke:black"/>
<polygon points="151.526,117.016 163.824,124.116 165.474,121.258 153.176,114.158" style="fill:none;stroke-width:0.050000mm;stroke:black"/>
<polygon points="154.325,111.068 166.449,118.068 173.449,105.944 161.325,98.944" style="fill:none;stroke-width:0.050000mm;stroke:black"/>
<polygon points="135.028,107.491 147.326,114.591 148.976,111.733 136.678,104.633" style="fill:none;stroke-width:0.050000mm;stroke:black"/>
<polygon points="137.827,101.543 149.951,108.543 156.951,96.419 144.827,89.419" style="fill:none;stroke-width:0.050000mm;stroke:black"/>
<polygon points="17.050,93.725 17.050,107.725 31.050,107.725 31.050,93.725" style="fill:none;stroke-width:0.050000mm;stroke:black"/>
<polygon points="36.100,93.725 36.100,107.725 50.100,107.725 50.100,93.725" style="fill:none;stroke-width:0.050000mm;stroke:black"/>
<polygon points="55.150,93.725 55.150,107.725 69.150,107.725 69.150,93.725" style="fill:none;stroke-width:0.050000mm;stroke:black"/>
<polygon points="74.200,93.725 74.200,107.725 88.200,107.725 88.200,93.725" style="fill:none;stroke-width:0.050000mm;stroke:black"/>
<polygon points="93.250,93.725 93.250,107.725 107.250,107.725 107.250,93.725" style="fill:none;stroke-width:0.050000mm;stroke:black"/>
<polygon points="112.300,93.725 112.300,107.725 126.300,107.725 126.300,93.725" style="fill:none;stroke-width:0.050000mm;stroke:black"/>
<polygon points="163.426,96.405 175.724,103.505 177.374,100.647 165.076,93.547" style="fill:none;stroke-width:0.050000mm;stroke:black"/>
<polygon points="146.928,86.880 159.226,93.980 160.876,91.122 148.578,84.022" style="fill:none;stroke-width:0.050000mm;stroke:black"/>
<polygon points="17.050,74.675 17.050,88.675 31.050,88.675 31.050,74.675" style="fill:none;stroke-width:0.050000mm;stroke:black"/>
<polygon points="36.100,74.675 36.100,88.675 50.100,88.675 50.100,74.675" style="fill:none;stroke-width:0.050000mm;stroke:black"/>
<polygon points="55.150,74.675 55.150,88.675 69.150,88.675 69.150,74.675" style="fill:none;stroke-width:0.050000mm;stroke:black"/>
<polygon points="74.200,74.675 74.200,88.675 88.200,88.675 88.200,74.675" style="fill:none;stroke-width:0.050000mm;stroke:black"/>
<polygon points="93.250,74.675 93.250,88.675 107.250,88.675 107.250,74.675" style="fill:none;stroke-width:0.050000mm;stroke:black"/>
<polygon points="112.300,74.675 112.300,88.675 126.300,88.675 126.300,74.675" style="fill:none;stroke-width:0.050000mm;stroke:black"/>
<polygon points="17.050,55.625 17.050,69.625 31.050,69.625 31.050,55.625" style="fill:none;stroke-width:0.050000mm;stroke:black"/>
<polygon points="36.100,55.625 36.100,69.625 50.100,69.625 50.100,55.625" style="fill:none;stroke-width:0.050000mm;stroke:black"/>
<polygon points="55.150,55.625 55.150,69.625 69.150,69.625 69.150,55.625" style="fill:none;stroke-width:0.050000mm;stroke:black"/>
<polygon points="74.200,55.625 74.200,69.625 88.200,69.625 88.200,55.625" style="fill:none;stroke-width:0.050000mm;stroke:black"/>
<polygon points="93.250,55.625 93.250,69.625 107.250,69.625 107.250,55.625" style="fill:none;stroke-width:0.050000mm;stroke:black"/>
<polygon points="112.300,55.625 112.300,69.625 126.300,69.625 126.300,55.625" style="fill:none;stroke-width:0.050000mm;stroke:black"/>
<polygon points="131.350,55.625 131.350,69.625 145.350,69.625 145.350,55.625" style="fill:none;stroke-width:0.050000mm;stroke:black"/>
<polygon points="17.050,36.575 17.050,50.575 31.050,50.575 31.050,36.575" style="fill:none;stroke-width:0.050000mm;stroke:black"/>
<polygon points="36.100,36.575 36.100,50.575 50.100,50.575 50.100,36.575" style="fill:none;stroke-width:0.050000mm;stroke:black"/>
<polygon points="55.150,36.575 55.150,50.575 69.150,50.575 69.150,36.575" style="fill:none;stroke-width:0.050000mm;stroke:black"/>
<polygon points="74.200,36.575 74.200,50.575 88.200,50.575 88.200,36.575" style="fill:none;stroke-width:0.050000mm;stroke:black"/>
<polygon points="93.250,36.575 93.250,50.575 107.250,50.575 107.250,36.575" style="fill:none;stroke-width:0.050000mm;stroke:black"/>
<polygon points="112.300,36.575 112.300,50.575 126.300,50.575 126.300,36.575" style="fill:none;stroke-width:0.050000mm;stroke:black"/>
<polygon points="131.350,36.575 131.350,50.575 145.350,50.575 145.350,36.575" style="fill:none;stroke-width:0.050000mm;stroke:black"/>
<polygon points="17.050,17.525 17.050,31.525 31.050,31.525 31.050,17.525" style="fill:none;stroke-width:0.050000mm;stroke:black"/>
<polygon points="36.100,17.525 36.100,31.525 50.100,31.525 50.100,17.525" style="fill:none;stroke-width:0.050000mm;stroke:black"/>
<polygon points="55.150,17.525 55.150,31.525 69.150,31.525 69.150,17.525" style="fill:none;stroke-width:0.050000mm;stroke:black"/>
<polygon points="74.200,17.525 74.200,31.525 88.200,31.525 88.200,17.525" style="fill:none;stroke-width:0.050000mm;stroke:black"/>
<polygon points="93.250,17.525 93.250,31.525 107.250,31.525 107.250,17.525" style="fill:none;stroke-width:0.050000mm;stroke:black"/>
<polygon points="112.300,17.525 112.300,31.525 126.300,31.525 126.300,17.525" style="fill:none;stroke-width:0.050000mm;stroke:black"/>
<polygon points="131.350,17.525 131.350,31.525 145.350,31.525 145.350,17.525" style="fill:none;stroke-width:0.050000mm;stroke:black"/>
</svg>
